<svg id="Layer_1" data-name="Layer 1" xmlns="http://www.w3.org/2000/svg" viewBox="0 0 223.09 32.56"><defs><style>.cls-1{fill:#d4df36;}.cls-2{fill:#d68abb;}</style></defs><path class="cls-1" d="M16.34,33.5a8,8,0,0,1-5.85,2.68q-3.74,0-6-4.35T2.14,20.32q0-7.32,2.57-12c1.7-3.13,3.87-4.69,6.49-4.69A7,7,0,0,1,16,5.29V9.37A6.46,6.46,0,0,0,11,7Q8,7,6.16,10.6a20.69,20.69,0,0,0-1.87,9.45q0,6,1.74,9.4t4.72,3.41a4.89,4.89,0,0,0,3.54-1.47V22.56H10.47V19.22h5.87Z" transform="translate(-2.14 -3.62)"/><path class="cls-1" d="M33,35.65H30.59l-2.92-8.83q-.41-1.23-.78-2.1a8,8,0,0,0-.77-1.42,2.76,2.76,0,0,0-.85-.8,2.09,2.09,0,0,0-1-.25H22.56v13.4h-2V4.14h5.2a4.49,4.49,0,0,1,2.12.52,4.8,4.8,0,0,1,1.68,1.57,8.5,8.5,0,0,1,1.11,2.63,14.8,14.8,0,0,1,.4,3.68,15.7,15.7,0,0,1-.27,3A10.51,10.51,0,0,1,30,18a6.8,6.8,0,0,1-1.22,1.83A5.19,5.19,0,0,1,27.16,21v.09a3.84,3.84,0,0,1,.76.8A6.9,6.9,0,0,1,28.54,23c.19.41.38.88.57,1.4s.41,1.12.64,1.81ZM22.56,7.48V18.91h2.77a2.54,2.54,0,0,0,1.42-.42,3.64,3.64,0,0,0,1.13-1.2,6.45,6.45,0,0,0,.74-1.91,10.93,10.93,0,0,0,.27-2.54A7.25,7.25,0,0,0,28,8.9a2.93,2.93,0,0,0-2.62-1.42Z" transform="translate(-2.14 -3.62)"/><path class="cls-1" d="M49.06,35.65H46.8L45,26.82h-7.4l-1.74,8.83H33.53L40.22,4.14h2.12ZM44.28,23.5,41.54,10.08c-.09-.44-.18-1.15-.27-2.11h-.05a19,19,0,0,1-.28,2.11L38.23,23.5Z" transform="translate(-2.14 -3.62)"/><path class="cls-1" d="M53.8,23.74V35.65h-2V4.14h4.8A4.85,4.85,0,0,1,60.89,6.6a13.12,13.12,0,0,1,1.54,7,14.14,14.14,0,0,1-1.71,7.34,5.2,5.2,0,0,1-4.62,2.85Zm0-16.26V20.4h2.14a3.6,3.6,0,0,0,3.23-1.74,9.13,9.13,0,0,0,1.12-4.94c0-4.16-1.37-6.24-4.09-6.24Z" transform="translate(-2.14 -3.62)"/><path class="cls-1" d="M79,35.65h-2V21.28h-9V35.65h-2V4.14h2V18h9V4.14h2Z" transform="translate(-2.14 -3.62)"/><path class="cls-1" d="M85.71,35.65h-2V4.14h2Z" transform="translate(-2.14 -3.62)"/><path class="cls-1" d="M102.3,34.33a6.7,6.7,0,0,1-4.82,1.85q-3.72,0-6-4.33T89.28,20.49q0-7.56,2.52-12.22t6.39-4.65a6.41,6.41,0,0,1,4.11,1.29V8.85A5.72,5.72,0,0,0,98.17,7c-2,0-3.63,1.2-4.88,3.62a21.23,21.23,0,0,0-1.87,9.69,20.25,20.25,0,0,0,1.75,9.18q1.74,3.4,4.58,3.41a6,6,0,0,0,4.55-2.11Z" transform="translate(-2.14 -3.62)"/><path class="cls-2" d="M105.17,34.38V30a5.31,5.31,0,0,0,1,1.18,6,6,0,0,0,1.22.89,5.73,5.73,0,0,0,1.28.56,3.85,3.85,0,0,0,1.19.2,3.28,3.28,0,0,0,2.82-1.26A6.08,6.08,0,0,0,113.6,28a7,7,0,0,0-.31-2.22,6.45,6.45,0,0,0-.86-1.72,9.89,9.89,0,0,0-1.29-1.5L109.52,21c-.6-.56-1.17-1.12-1.7-1.69a10,10,0,0,1-1.38-1.89,9.43,9.43,0,0,1-.91-2.34,12.15,12.15,0,0,1-.34-3.07,12.28,12.28,0,0,1,.52-3.74,8,8,0,0,1,1.38-2.63A5.54,5.54,0,0,1,109,4.12a6.15,6.15,0,0,1,6,.62V8.89A4.85,4.85,0,0,0,111,7a3.68,3.68,0,0,0-1.33.25,3.11,3.11,0,0,0-1.2.82,4.52,4.52,0,0,0-.85,1.47,6.49,6.49,0,0,0-.33,2.2,8,8,0,0,0,.25,2.09,5.45,5.45,0,0,0,.74,1.6,8.1,8.1,0,0,0,1.19,1.41c.46.45,1,.95,1.61,1.49s1.22,1.15,1.78,1.76a11.23,11.23,0,0,1,1.47,2.05,10.38,10.38,0,0,1,1,2.48,11.82,11.82,0,0,1,.37,3.12,13.21,13.21,0,0,1-.5,3.94,7.57,7.57,0,0,1-1.36,2.63,5.21,5.21,0,0,1-2,1.46,6.31,6.31,0,0,1-2.36.45,5.52,5.52,0,0,1-1-.12,8.94,8.94,0,0,1-1.24-.35,8.26,8.26,0,0,1-1.2-.57A3.44,3.44,0,0,1,105.17,34.38Z" transform="translate(-2.14 -3.62)"/><path class="cls-1" d="M131.23,34.33a6.72,6.72,0,0,1-4.82,1.85q-3.72,0-6-4.33t-2.24-11.36q0-7.56,2.52-12.22t6.39-4.65a6.43,6.43,0,0,1,4.11,1.29V8.85A5.73,5.73,0,0,0,127.09,7c-2,0-3.63,1.2-4.87,3.62a21.23,21.23,0,0,0-1.87,9.69,20.39,20.39,0,0,0,1.74,9.18q1.75,3.4,4.59,3.41a6,6,0,0,0,4.55-2.11Z" transform="translate(-2.14 -3.62)"/><path class="cls-1" d="M148,35.65h-2V21.28h-9V35.65h-2V4.14h2V18h9V4.14h2Z" transform="translate(-2.14 -3.62)"/><path class="cls-1" d="M159.77,36.18q-3.72,0-6-4.42t-2.23-11.49q0-7.6,2.27-12.13t6.2-4.52q3.62,0,5.82,4.39t2.21,11.49q0,7.71-2.26,12.2T159.77,36.18ZM159.91,7q-2.74,0-4.46,3.58a21.81,21.81,0,0,0-1.72,9.4,22.24,22.24,0,0,0,1.67,9.37c1.12,2.37,2.57,3.55,4.37,3.55s3.42-1.13,4.52-3.38S166,24.07,166,20s-.53-7.38-1.61-9.65S161.8,7,159.91,7Z" transform="translate(-2.14 -3.62)"/><path class="cls-1" d="M180.71,35.65h-9.06V4.14h2V32.31h7Z" transform="translate(-2.14 -3.62)"/><path class="cls-1" d="M197.74,35.65h-2.27l-1.84-8.83h-7.41l-1.74,8.83h-2.27L188.9,4.14H191ZM193,23.5l-2.74-13.42C190.13,9.64,190,8.93,190,8h0a19,19,0,0,1-.28,2.11L186.91,23.5Z" transform="translate(-2.14 -3.62)"/><path class="cls-1" d="M213,35.65h-2.44l-2.92-8.83q-.41-1.23-.78-2.1A8,8,0,0,0,206,23.3a2.87,2.87,0,0,0-.85-.8,2.09,2.09,0,0,0-1-.25h-1.68v13.4h-2V4.14h5.21a4.45,4.45,0,0,1,2.11.52,4.63,4.63,0,0,1,1.68,1.57,8.28,8.28,0,0,1,1.12,2.63,15.29,15.29,0,0,1,.4,3.68,14.91,14.91,0,0,1-.28,3A11,11,0,0,1,209.9,18a7,7,0,0,1-1.22,1.83,5.31,5.31,0,0,1-1.6,1.18v.09a4.12,4.12,0,0,1,.76.8,6.9,6.9,0,0,1,.61,1.06,14.88,14.88,0,0,1,.58,1.4c.19.52.41,1.12.64,1.81ZM202.48,7.48V18.91h2.77a2.56,2.56,0,0,0,1.42-.42,3.74,3.74,0,0,0,1.13-1.2,6.74,6.74,0,0,0,.74-1.91,10.93,10.93,0,0,0,.27-2.54,7.34,7.34,0,0,0-.91-3.94,3,3,0,0,0-2.62-1.42Z" transform="translate(-2.14 -3.62)"/><path class="cls-1" d="M214.65,34.38V30a5.91,5.91,0,0,0,1,1.18,6.33,6.33,0,0,0,1.22.89,5.94,5.94,0,0,0,1.28.56,3.91,3.91,0,0,0,1.2.2,3.28,3.28,0,0,0,2.82-1.26,6.08,6.08,0,0,0,.93-3.64,7.34,7.34,0,0,0-.31-2.22,6.76,6.76,0,0,0-.86-1.72,10.57,10.57,0,0,0-1.3-1.5L219,21c-.61-.56-1.18-1.12-1.71-1.69a10.37,10.37,0,0,1-1.37-1.89A9.44,9.44,0,0,1,215,15.1a12.66,12.66,0,0,1-.33-3.07,12,12,0,0,1,.52-3.74,8,8,0,0,1,1.38-2.63,5.45,5.45,0,0,1,1.94-1.54,6.15,6.15,0,0,1,6,.62V8.89a4.85,4.85,0,0,0-4-1.93,3.74,3.74,0,0,0-1.34.25A3.15,3.15,0,0,0,218,8a4.35,4.35,0,0,0-.85,1.47,6.49,6.49,0,0,0-.33,2.2,7.58,7.58,0,0,0,.25,2.09,5.43,5.43,0,0,0,.73,1.6A8.57,8.57,0,0,0,219,16.8c.47.45,1,.95,1.61,1.49a24.65,24.65,0,0,1,1.78,1.76,11.23,11.23,0,0,1,1.47,2.05,10.39,10.39,0,0,1,1,2.48,11.82,11.82,0,0,1,.37,3.12,13.18,13.18,0,0,1-.51,3.94,7.41,7.41,0,0,1-1.36,2.63,5.06,5.06,0,0,1-2,1.46,6.23,6.23,0,0,1-2.36.45,5.43,5.43,0,0,1-1-.12,8.57,8.57,0,0,1-1.24-.35,7.79,7.79,0,0,1-1.2-.57A3.5,3.5,0,0,1,214.65,34.38Z" transform="translate(-2.14 -3.62)"/></svg>